<!--?xml version="1.0" encoding="utf-8"?-->
<!-- Generator: Adobe Illustrator 18.1.1, SVG Export Plug-In . SVG Version: 6.00 Build 0)  -->

<svg version="1.1" id="_x31_0" xmlns="http://www.w3.org/2000/svg" xmlns:xlink="http://www.w3.org/1999/xlink" x="0px" y="0px" viewBox="0 0 512 512" style="width: 256px; height: 256px; opacity: 1;" xml:space="preserve">
<style type="text/css">
	.st0{fill:#374149;}
</style>
<g>
	<path class="st0" d="M511.699,376.96c0.168-0.774,0.289-1.547,0.301-2.324h-0.019c0-0.055,0.019-0.11,0.019-0.16H256H0
		c0,14.855,28.652,28.3,74.981,38.034c46.324,9.734,110.324,9.395,181.019,9.395c70.691,0,134.691,0.339,181.016-9.395
		c40.609-8.531,67.633-19.918,73.687-32.605c0.422-0.879,0.742-1.766,0.961-2.653C511.687,377.155,511.68,377.058,511.699,376.96z" style="fill: rgb(81, 10, 10);"></path>
	<path class="st0" d="M104.844,207.448c2.777,43.43,23.648,86.61,55.027,112.34c0,12.863,43.039,23.293,96.129,23.293
		c53.09,0,96.125-10.43,96.125-23.293c16.192-13.274,29.555-31.214,39.106-51.422c19.762-3.157,38.422-11.672,53.34-25.278
		c26.527-24.199,41.758-58.726,41.758-94.613v-5.817c0-11.094-8.996-20.09-20.094-20.09h-50.578l-3.086-0.012l1.942-30.461
		l0.129-1.832h-0.012l0.012-0.16H116.656l-19.14-0.012l0.003,0.012h-0.16L104.844,207.448z M444.851,166.136
		c0.336,0.836,0.539,1.726,0.582,2.652c0.016,0.336,0,0.672-0.027,1.012c-0.039,0.473-0.066,0.942-0.191,1.418
		c-4.63,17.626-14.555,33.692-28.699,45.715c-2.668,2.27-5.578,4.172-8.578,5.906c-0.934,0.504-1.797,1.062-2.793,1.519
		c0.961-5.61,1.648-11.258,2.011-16.91l2.977-46.706h26.797c3.274,0,6.054,1.855,7.496,4.465
		C444.59,165.51,444.726,165.819,444.851,166.136z" style="fill: rgb(81, 10, 10);"></path>
</g>
</svg>
