<!--?xml version="1.0" encoding="utf-8"?-->
<!-- Generator: Adobe Illustrator 19.1.1, SVG Export Plug-In . SVG Version: 6.00 Build 0)  -->
<svg version="1.1" id="_x31_0" xmlns="http://www.w3.org/2000/svg" xmlns:xlink="http://www.w3.org/1999/xlink" x="0px" y="0px" viewBox="0 0 512 512" style="width: 256px; height: 256px; opacity: 1;" xml:space="preserve">
<style type="text/css">
	.st0{fill:#374149;}
</style>
<g>
	<path class="st0" d="M319.584,341.45l-4.641-14.133c-0.015,0.015-0.039,0.027-0.054,0.042l-0.055-0.16
		c-0.797,0.722-1.679,1.359-2.562,2l-30.633,22l-6.086,4.402l14.164,42.718l76.156,102.559c0.406,0.527,0.957,0.847,1.446,1.27
		c0.102,0.086,0.195,0.179,0.297,0.262c1.687,1.336,3.664,2.019,5.758,2.023c0,0,0.008,0,0.012,0c0.008,0,0.011,0,0.019,0
		c1.946-0.008,3.906-0.45,5.594-1.715l22.157-16.48c4.164-3.039,4.961-8.879,1.843-13.039l-71.679-96.558L319.584,341.45z" style="fill: rgb(8, 128, 7);"></path>
	<path class="st0" d="M190.592,512c3.679,0,6.804-2.641,7.281-6.32l18-125.52l40-40l11.766-8.48l30.719-22
		c2.234-1.602,4.078-3.52,5.437-5.84c2-3.199,3.118-6.879,3.118-10.719v-9.042l-1.782-64.477l-1.214-48.11l33.316,36.188
		l18.962,55.839c1.843,5.52,6.961,8.962,12.398,8.962c1.445,0,2.882-0.161,4.242-0.723l18.883-6.32
		c6.961-2.317,10.641-9.836,8.234-16.719l-22-65.199l-70.398-76.398c-3.039-3.281-7.282-5.121-11.68-5.121
		c-0.797,0-1.515,0.078-2.32,0.16l-55.118,8.238c-4.882,0.641-9.117,3.68-11.523,8l-38.715,51.485l-72.965,22.758
		c-6.078,1.918-9.515,8.398-7.594,14.48l6.875,22.078c1.602,4.961,6.164,8.16,11.039,8.16c1.203,0,2.32-0.16,3.523-0.558
		l65.043-19.957l20.902-12.875l10.851-6.59V303.68l-53.679,54.64l-20.078,140.801c-0.641,4.078,2.242,7.84,6.242,8.398l31.195,4.402
		C189.951,511.922,190.271,512,190.592,512z" style="fill: rgb(8, 128, 7);"></path>
	<path class="st0" d="M246.677,84.879c5.039,2,10.477,3.121,16.156,3.121c10.321,0,19.844-3.519,27.36-9.602h0.078
		C300.357,70.32,306.833,57.922,306.833,44c0-24.32-19.679-44-44-44c-24.242,0-44,19.68-44,44
		C218.833,62.558,230.357,78.481,246.677,84.879z" style="fill: rgb(8, 128, 7);"></path>
</g>
</svg>
