<!--?xml version="1.0" encoding="utf-8"?-->
<!-- Generator: Adobe Illustrator 18.1.1, SVG Export Plug-In . SVG Version: 6.00 Build 0)  -->

<svg version="1.1" id="_x31_0" xmlns="http://www.w3.org/2000/svg" xmlns:xlink="http://www.w3.org/1999/xlink" x="0px" y="0px" viewBox="0 0 512 512" style="width: 256px; height: 256px; opacity: 1;" xml:space="preserve">
<style type="text/css">
	.st0{fill:#374149;}
</style>
<g>
	<path class="st0" d="M507.83,397.976c-0.633-1.621-1.278-3.234-1.84-4.878l-49.793-163.829c-2.137-6.254-4.934-12.301-8.602-17.855
		c-22.199-33.649-66.977-47.93-106.352-31.894c-15.71,6.402-28.418,16.77-37.43,29.375h-95.633
		c-9.008-12.606-21.715-22.973-37.43-29.375c-39.371-16.035-84.153-1.754-106.352,31.894c-3.664,5.554-6.461,11.602-8.598,17.855
		L6.01,393.097c-0.562,1.644-1.211,3.258-1.84,4.878c-12.254,31.458,3.344,66.91,35.746,80.106
		c32.398,13.199,69.637-0.73,84.492-31.129c0.766-1.566,1.512-3.137,2.344-4.672l15.054-25.679
		c6.211,2.836,13.114,4.434,20.39,4.434c27.137,0,49.137-22.004,49.137-49.141c0-0.805-0.019-1.602-0.058-2.398h85.442l4.008,0.008
		c-0.039,0.793-0.062,1.59-0.062,2.39c0,27.137,22.004,49.141,49.141,49.141c7.277,0,14.175-1.598,20.39-4.434l15.054,25.679
		c0.828,1.535,1.578,3.106,2.344,4.672c14.855,30.398,52.094,44.328,84.492,31.129C504.486,464.886,520.084,429.433,507.83,397.976z
		 M410.737,251.054c8.742,0,15.836,7.09,15.836,15.836c0,8.746-7.094,15.836-15.84,15.836c-8.746,0-15.836-7.09-15.836-15.836
		C394.897,258.144,401.986,251.054,410.737,251.054z M349.803,396.703c-13.68,0-24.809-11.13-24.809-24.809
		c0-13.68,11.129-24.809,24.809-24.809c13.679,0,24.808,11.129,24.808,24.809C374.611,385.573,363.482,396.703,349.803,396.703z
		 M393.206,235.573c0,8.746-7.09,15.836-15.836,15.836c-8.746,0-15.836-7.094-15.836-15.84c0-8.746,7.09-15.836,15.836-15.836
		C386.115,219.733,393.206,226.824,393.206,235.573z M359.842,266.89c0,8.746-7.09,15.836-15.839,15.836
		c-8.746,0-15.836-7.09-15.836-15.836c0-8.746,7.094-15.836,15.839-15.836C352.752,251.054,359.842,258.144,359.842,266.89z
		 M361.534,302.304c0-8.75,7.09-15.839,15.836-15.839c8.746,0,15.836,7.094,15.836,15.839c0,8.746-7.09,15.836-15.836,15.836
		C368.623,318.14,361.534,311.05,361.534,302.304z M272.182,328.148v13.485h-32.363v-13.485H272.182z M241.232,307.241h-24.87
		v-15.266h24.87V307.241z M275.279,309.961v-10.352v-10.414l15.25,6l11.062,4.476l-19.262,7.578L275.279,309.961z M162.197,396.703
		c-13.679,0-24.812-11.13-24.812-24.809c0-13.68,11.133-24.809,24.812-24.809c13.68,0,24.809,11.129,24.809,24.809
		C187.006,385.573,175.877,396.703,162.197,396.703z M184.518,272.933v8.074c0,1.727-1.398,3.129-3.125,3.129h-10.086l-14.262-0.003
		c-0.969,0-1.886-0.45-2.477-1.219l-6.21-8.074c-0.867-1.125-0.867-2.691,0-3.816l6.21-8.074c0.59-0.77,1.508-1.218,2.477-1.218
		h14.262h10.086c1.726,0,3.125,1.398,3.125,3.125V272.933z M145.83,227.437v10.086v14.262c0,0.969-0.449,1.882-1.218,2.477
		l-8.074,6.21c-1.125,0.867-2.691,0.867-3.812,0l-8.078-6.21c-0.77-0.594-1.219-1.508-1.219-2.477v-14.262v-10.086
		c0-1.726,1.398-3.125,3.126-3.125h8.078h8.074C144.431,224.312,145.83,225.71,145.83,227.437z M123.427,308.339v-14.258
		c0-0.973,0.45-1.886,1.219-2.48l8.078-6.211c1.121-0.867,2.687-0.867,3.812,0l8.074,6.211c0.77,0.594,1.218,1.507,1.218,2.48
		v14.258v10.086c0,1.726-1.398,3.129-3.125,3.129h-8.074h-8.078c-1.727,0-3.126-1.402-3.126-3.129V308.339z M87.869,284.133
		c-1.73,0-3.129-1.398-3.129-3.126v-8.078v-8.074c0-1.726,1.398-3.125,3.129-3.125h10.086h14.258c0.969,0,1.886,0.449,2.477,1.218
		l6.214,8.074c0.863,1.125,0.863,2.691,0,3.816l-6.214,8.074c-0.59,0.77-1.508,1.219-2.477,1.219H97.955H87.869z" style="fill: rgb(83, 80, 80);"></path>
	<path class="st0" d="M267.998,40.937c0-6.641-5.36-12-12-12c-6.637,0-12,5.359-12,12v132h24V40.937z" style="fill: rgb(83, 80, 80);"></path>
</g>
</svg>
